<svg id="Calque_1" data-name="Calque 1" xmlns="http://www.w3.org/2000/svg" viewBox="0 0 512 512"><defs><style>.cls-1{fill:red;}.cls-2{fill:#fff;}</style></defs><title>moisson live carré</title><path d="M253.84,309.9c-16.12-4.79-31.89-9.46-47.65-14.16Q131,273.32,55.87,251c-2.93-.87-4-2-3.95-5.18.2-14.74.07-29.48.08-44.22,0-7.31,4.13-11.43,11.46-11.44q28.2,0,56.41,0h4V183H120c-21.59,0-43.18,0-64.77.07a10.16,10.16,0,0,0-5.12,1.57c-6.07,3.86-12,8-18,11.93-4.08,2.7-6.57,2.21-9.36-1.83-1.91-2.77-3.82-5.54-5.61-8.39-2-3.21-1.54-6,1.58-8.15,8.33-5.69,16.69-11.35,25.19-16.79,1.51-1,3.76-1.09,5.67-1.1,23.45-.07,46.89-.05,70.34-.06h3.68c2.44-9.67,5.32-11.92,15.16-11.92q74.34,0,148.69,0c8.22,0,12.76,4.43,12.76,12.68,0,19-.15,38.06-.16,57.09q0,20.69.22,41.38c0,1.86-.41,2.86-2.32,3.58C276.36,271.11,262,286.21,254.6,308,254.42,308.52,254.18,309,253.84,309.9ZM122.9,210.29h0q22.63,0,45.26,0c4.19,0,4.08-.05,4.23-5.1.09-3.07-.2-4.93-4.17-4.91q-45.26.23-90.51,0c-3.5,0-4.37,1.22-4.24,4.48.22,5.48,0,5.52,4.19,5.53Q100.27,210.31,122.9,210.29Zm0,8.07c-15.2,0-30.4.06-45.6,0-2.86,0-4.15.88-3.8,3.79a10.27,10.27,0,0,1,0,2.43c-.36,3,1,3.74,3.82,3.73,30.28-.08,60.57-.12,90.85,0,3.94,0,4.31-1.73,4.21-4.84-.16-5.06,0-5.1-4.23-5.1Zm0,18v0c-15.2,0-30.4,0-45.6,0-2.81,0-4.2.8-3.8,3.77a9.75,9.75,0,0,1,0,2.43c-.36,2.93.94,3.8,3.8,3.8,30.28-.08,60.57,0,90.85-.05,4.19,0,4.06,0,4.23-5.14.1-3.14-.29-4.89-4.24-4.84C153.07,236.48,138,236.34,122.9,236.34Z"/><path d="M52.15,257.41,251.82,317c0,7.12-.62,14.09.17,20.9s3,13.24,4.6,20H134.06c0-6.09.69-12.05-.12-17.8-3.91-27.82-31.11-47.17-58.82-42.44a68,68,0,0,1-13.87.48,9.14,9.14,0,0,1-9-8.61C51.91,278.94,52.15,268.41,52.15,257.41Z"/><path d="M259,330.65c-1.07-33.89,26.17-62.83,60.26-64,34.31-1.19,63.64,25.87,64.81,59.81a62.66,62.66,0,0,1-61.12,65.26C288.67,392.64,260.1,365.36,259,330.65Zm93.76-1.24a31.24,31.24,0,0,0-62.48-.88c-.23,17.42,13.77,31.82,31,31.87A31.29,31.29,0,0,0,352.76,329.41Z"/><path d="M308.3,260c-.07-1.31-.17-2.33-.17-3.35q0-40.9,0-81.8c0-8.5,3.79-12.22,12.35-12.22h96.08c10.17,0,16.31,7.78,13.81,17.61q-11.74,46.17-23.53,92.32c-2.16,8.48-7,12.72-15.7,13.91-.92.12-1.86.07-2.77.19-6.92.92-11.85-1.18-17.06-6.63-16.57-17.35-37.44-23.65-61.2-20.29Zm68.09-33.41c0,12.06,0,24.12,0,36.18,0,3.63,1.14,6.61,4.24,8.61,7.06,4.57,16.74,1,18.88-7.06q10-37.61,19.86-75.26c1.28-4.89-1.33-8.2-6.43-8.22-8.7,0-17.39,0-26.09,0-7.38,0-10.41,3-10.42,10.26Q376.38,208.86,376.39,226.6Zm-34-45.75h0c-6.5,0-13-.05-19.5,0-4,0-6.88,2.48-6.92,6.27-.12,11.14-.15,22.27,0,33.41.06,4.6,2.69,6.83,7.44,6.84q19,.05,38,0c4.67,0,7.35-2.64,7.38-7.35q.1-15.84,0-31.69c0-5-2.58-7.47-7.54-7.51C354.88,180.82,348.61,180.86,342.34,180.86Z"/><path d="M480.2,349.48c4.4,2.51,8.5,4.86,12.62,7.19,2.08,1.18,3.69,2.72,2.88,5.29s-2.83,3.39-5.45,3.38c-25.65,0-51.29,0-76.94-.07-12.6-.05-21.45-9.11-21.48-21.62q0-16.54,0-33.08c0-6.07,3.2-8,8.52-5.12,2.86,1.54,5.69,3.12,8.91,4.89.67-1,1.38-2,2-3.09,3.55-6.12,7.14-12.22,10.57-18.41a7.66,7.66,0,0,1,7.26-4.42q18.8.06,37.61,0a7.23,7.23,0,0,1,6.74,4.06q9.18,16,18.49,31.92a7.94,7.94,0,0,1,0,8.82C488,335.81,484.25,342.47,480.2,349.48Zm-12-6.54c3.38-5.84,6.64-11.3,9.65-16.89.45-.83,0-2.47-.51-3.44q-6.39-11.35-13.06-22.55a4.46,4.46,0,0,0-3.12-2c-8.92-.16-17.85-.13-26.77,0a3.79,3.79,0,0,0-2.81,1.34c-3.47,5.73-6.75,11.57-10.24,17.64Z"/><path d="M127.34,348.06a43.69,43.69,0,0,1-87.38.19c-.12-24.07,19.37-43.91,43.27-44A43.69,43.69,0,0,1,127.34,348.06Zm-16.2-.23a27.48,27.48,0,1,0-27.25,27.58A27.49,27.49,0,0,0,111.14,347.83Z"/><path class="cls-1" d="M385.3,33.62l.64-20.83C413.09,14,437.17,23.2,457.69,41.2a113.54,113.54,0,0,1,38.88,89.49L475.86,130c.31-25.46-7.81-48-25.42-66.75S410.86,34.93,385.3,33.62Z"/><path class="cls-1" d="M404.42,106.38A30.53,30.53,0,1,1,361.29,105,30.61,30.61,0,0,1,404.42,106.38Z"/><path class="cls-1" d="M455.15,129.51l-20.86-.69c.16-14.22-4.37-26.76-14.19-37.2s-22-15.71-36.2-16.44l.63-20.8C421.78,54.58,456.63,87.2,455.15,129.51Z"/><rect class="cls-1" x="326.78" y="430.48" width="158.95" height="70.96" rx="3" ry="3"/><path d="M35.73,441H48.08l13.48,35.69h.57L75.61,441H88v50.81H78.52v-25l.57-8.44h-.57L65.61,491.77H58.15l-13-33.49H44.6l.57,8.44v25H35.73Z"/><path d="M105.63,490.39a17.89,17.89,0,0,1-6.85-6.89,20.87,20.87,0,0,1,0-19.62,17.82,17.82,0,0,1,6.85-6.92,21,21,0,0,1,19.94,0,17.82,17.82,0,0,1,6.85,6.92,20.87,20.87,0,0,1,0,19.62,17.89,17.89,0,0,1-6.85,6.89,21,21,0,0,1-19.94,0Zm15-7.35a9.38,9.38,0,0,0,3.62-3.69,11.45,11.45,0,0,0,1.35-5.68,11.3,11.3,0,0,0-1.35-5.6,9.37,9.37,0,0,0-3.62-3.69,10.29,10.29,0,0,0-9.93,0,9.6,9.6,0,0,0-3.65,3.69,11.06,11.06,0,0,0-1.38,5.6,11.27,11.27,0,0,0,1.38,5.64,9.57,9.57,0,0,0,3.65,3.73,10.31,10.31,0,0,0,9.93,0Z"/><path d="M141.81,455.59h9.3v36.19h-9.3Z"/><path d="M163.92,490.22a14.37,14.37,0,0,1-5.71-7l8.3-3.62a8.46,8.46,0,0,0,3.23,3.86,9,9,0,0,0,4.86,1.31,9.85,9.85,0,0,0,4.26-.81,2.76,2.76,0,0,0,1.7-2.66,2.88,2.88,0,0,0-1.56-2.66,17.83,17.83,0,0,0-4.68-1.6l-4.26-.92a15.56,15.56,0,0,1-7.31-3.87,9.3,9.3,0,0,1-2.91-7,9.06,9.06,0,0,1,1.88-5.61,12.07,12.07,0,0,1,5.11-3.83,18.33,18.33,0,0,1,7.13-1.35q11.21,0,15,7.88L181,465.8a8.19,8.19,0,0,0-10.64-2.95,2.59,2.59,0,0,0-1.42,2.24q0,2.56,4.83,3.83l5.32,1.28a17,17,0,0,1,8.12,4.12,9.32,9.32,0,0,1,2.73,6.81,9.87,9.87,0,0,1-2,6.14,13.28,13.28,0,0,1-5.54,4.15,19.67,19.67,0,0,1-7.77,1.49Q168,492.91,163.92,490.22Z"/><path d="M199.75,490.22a14.37,14.37,0,0,1-5.71-7l8.3-3.62a8.46,8.46,0,0,0,3.23,3.86,9,9,0,0,0,4.86,1.31,9.85,9.85,0,0,0,4.26-.81,2.76,2.76,0,0,0,1.7-2.66,2.88,2.88,0,0,0-1.56-2.66,17.83,17.83,0,0,0-4.68-1.6l-4.26-.92a15.56,15.56,0,0,1-7.31-3.87,9.3,9.3,0,0,1-2.91-7,9.06,9.06,0,0,1,1.88-5.61,12.07,12.07,0,0,1,5.11-3.83,18.33,18.33,0,0,1,7.13-1.35q11.21,0,15,7.88l-7.95,3.48a8.19,8.19,0,0,0-10.64-2.95,2.59,2.59,0,0,0-1.42,2.24q0,2.56,4.83,3.83l5.32,1.28a17,17,0,0,1,8.12,4.12,9.32,9.32,0,0,1,2.73,6.81,9.87,9.87,0,0,1-2,6.14,13.28,13.28,0,0,1-5.54,4.15,19.67,19.67,0,0,1-7.77,1.49Q203.83,492.91,199.75,490.22Z"/><path d="M240.16,490.39a17.9,17.9,0,0,1-6.85-6.89,20.88,20.88,0,0,1,0-19.62,17.83,17.83,0,0,1,6.85-6.92,21,21,0,0,1,19.94,0,17.83,17.83,0,0,1,6.85,6.92,20.88,20.88,0,0,1,0,19.62,17.9,17.9,0,0,1-6.85,6.89,21,21,0,0,1-19.94,0Zm15-7.35a9.37,9.37,0,0,0,3.62-3.69,11.45,11.45,0,0,0,1.35-5.68,11.3,11.3,0,0,0-1.35-5.6,9.36,9.36,0,0,0-3.62-3.69,10.29,10.29,0,0,0-9.93,0,9.6,9.6,0,0,0-3.66,3.69,11.09,11.09,0,0,0-1.38,5.6,11.3,11.3,0,0,0,1.38,5.64A9.57,9.57,0,0,0,245.2,483a10.31,10.31,0,0,0,9.93,0Z"/><path d="M275.79,455.59h8.73v4.54h.57a11.39,11.39,0,0,1,4.61-4.15,14,14,0,0,1,6.46-1.53q6.53,0,9.93,4t3.4,10.86v22.49H300.2V470.42a7.64,7.64,0,0,0-1.77-5.39,6.43,6.43,0,0,0-5-1.92,7.36,7.36,0,0,0-6.07,2.91,11.39,11.39,0,0,0-2.31,7.31v18.45h-9.3Z"/><path class="cls-2" d="M340.5,441H350l-7.38,41.73h21.5l-1.56,9.08H331.49Z"/><path class="cls-2" d="M379.53,441H389l-9,50.81h-9.51Z"/><path class="cls-2" d="M394.86,441h10.22l5,30.65.71,6.46h.57l3.12-6.46L430.76,441h10.64l-27.46,50.81H403.87Z"/><path class="cls-2" d="M448.15,441h32.21l-1.63,9.08H456.09L454,461.83H474.4l-1.63,9.08H452.33l-2.06,11.78h22.64l-1.56,9.08H439.13Z"/><path class="cls-1" d="M132.55,426l2.72,2.73a17.47,17.47,0,0,0,0,24.58L132.55,456A21.22,21.22,0,0,1,132.55,426Z"/><path class="cls-1" d="M160,428.72l2.74-2.74a21.28,21.28,0,0,1,0,30L160,453.3a17.47,17.47,0,0,0,0-24.58Z"/><path class="cls-1" d="M153.29,441a5.67,5.67,0,1,1-5.67-5.67A5.69,5.69,0,0,1,153.29,441Z"/><path class="cls-1" d="M138,431.41l2.74,2.74a9.72,9.72,0,0,0,0,13.69L138,450.58A13.53,13.53,0,0,1,138,431.41Z"/><path class="cls-1" d="M157.22,450.6l-2.74-2.75a9.72,9.72,0,0,0,0-13.68l2.73-2.74A13.53,13.53,0,0,1,157.22,450.6Z"/></svg>