<svg id="Calque_1" data-name="Calque 1" xmlns="http://www.w3.org/2000/svg" viewBox="0 0 512 512"><defs><style>.cls-1{fill:red;}.cls-2{fill:#fff;}</style></defs><title>moisson live carré blanc</title><rect class="cls-1" x="324.78" y="425.02" width="158.95" height="70.96" rx="3" ry="3"/><path class="cls-2" d="M33.73,435.51H46.08l13.48,35.69h.57l13.48-35.69H86v50.81H76.52v-25l.57-8.44h-.57L63.61,486.32H56.15l-13-33.49H42.6l.57,8.44v25H33.73Z"/><path class="cls-2" d="M103.63,484.94a17.89,17.89,0,0,1-6.85-6.89,20.87,20.87,0,0,1,0-19.62,17.82,17.82,0,0,1,6.85-6.92,21,21,0,0,1,19.94,0,17.82,17.82,0,0,1,6.85,6.92,20.87,20.87,0,0,1,0,19.62,17.89,17.89,0,0,1-6.85,6.89,21,21,0,0,1-19.94,0Zm15-7.35a9.38,9.38,0,0,0,3.62-3.69,11.45,11.45,0,0,0,1.35-5.68,11.3,11.3,0,0,0-1.35-5.6,9.37,9.37,0,0,0-3.62-3.69,10.29,10.29,0,0,0-9.93,0,9.6,9.6,0,0,0-3.65,3.69,11.06,11.06,0,0,0-1.38,5.6,11.27,11.27,0,0,0,1.38,5.64,9.57,9.57,0,0,0,3.65,3.73,10.31,10.31,0,0,0,9.93,0Z"/><path class="cls-2" d="M139.81,450.13h9.3v36.19h-9.3Z"/><path class="cls-2" d="M161.92,484.76a14.37,14.37,0,0,1-5.71-7l8.3-3.62a8.46,8.46,0,0,0,3.23,3.86,9,9,0,0,0,4.86,1.31,9.85,9.85,0,0,0,4.26-.81,2.76,2.76,0,0,0,1.7-2.66,2.88,2.88,0,0,0-1.56-2.66,17.83,17.83,0,0,0-4.68-1.6l-4.26-.92a15.56,15.56,0,0,1-7.31-3.87,9.3,9.3,0,0,1-2.91-7,9.06,9.06,0,0,1,1.88-5.61,12.07,12.07,0,0,1,5.11-3.83A18.33,18.33,0,0,1,172,449q11.21,0,15,7.88L179,460.35a8.19,8.19,0,0,0-10.64-2.95,2.59,2.59,0,0,0-1.42,2.24q0,2.56,4.83,3.83l5.32,1.28a17,17,0,0,1,8.12,4.12,9.32,9.32,0,0,1,2.73,6.81,9.87,9.87,0,0,1-2,6.14,13.28,13.28,0,0,1-5.54,4.15,19.67,19.67,0,0,1-7.77,1.49Q166,487.45,161.92,484.76Z"/><path class="cls-2" d="M197.75,484.76a14.37,14.37,0,0,1-5.71-7l8.3-3.62a8.46,8.46,0,0,0,3.23,3.86,9,9,0,0,0,4.86,1.31,9.85,9.85,0,0,0,4.26-.81,2.76,2.76,0,0,0,1.7-2.66,2.88,2.88,0,0,0-1.56-2.66,17.83,17.83,0,0,0-4.68-1.6l-4.26-.92a15.56,15.56,0,0,1-7.31-3.87,9.3,9.3,0,0,1-2.91-7,9.06,9.06,0,0,1,1.88-5.61,12.07,12.07,0,0,1,5.11-3.83,18.33,18.33,0,0,1,7.13-1.35q11.21,0,15,7.88l-7.95,3.48a8.19,8.19,0,0,0-10.64-2.95,2.59,2.59,0,0,0-1.42,2.24q0,2.56,4.83,3.83l5.32,1.28a17,17,0,0,1,8.12,4.12,9.32,9.32,0,0,1,2.73,6.81,9.87,9.87,0,0,1-2,6.14A13.28,13.28,0,0,1,216.2,486a19.67,19.67,0,0,1-7.77,1.49Q201.83,487.45,197.75,484.76Z"/><path class="cls-2" d="M238.16,484.94a17.9,17.9,0,0,1-6.85-6.89,20.88,20.88,0,0,1,0-19.62,17.83,17.83,0,0,1,6.85-6.92,21,21,0,0,1,19.94,0,17.83,17.83,0,0,1,6.85,6.92,20.88,20.88,0,0,1,0,19.62,17.9,17.9,0,0,1-6.85,6.89,21,21,0,0,1-19.94,0Zm15-7.35a9.37,9.37,0,0,0,3.62-3.69,11.45,11.45,0,0,0,1.35-5.68,11.3,11.3,0,0,0-1.35-5.6,9.36,9.36,0,0,0-3.62-3.69,10.29,10.29,0,0,0-9.93,0,9.6,9.6,0,0,0-3.66,3.69,11.09,11.09,0,0,0-1.38,5.6,11.3,11.3,0,0,0,1.38,5.64,9.57,9.57,0,0,0,3.66,3.73,10.31,10.31,0,0,0,9.93,0Z"/><path class="cls-2" d="M273.79,450.13h8.73v4.54h.57a11.39,11.39,0,0,1,4.61-4.15,14,14,0,0,1,6.46-1.53q6.53,0,9.93,4t3.4,10.86v22.49H298.2V465a7.64,7.64,0,0,0-1.77-5.39,6.43,6.43,0,0,0-5-1.92,7.36,7.36,0,0,0-6.07,2.91,11.39,11.39,0,0,0-2.31,7.31v18.45h-9.3Z"/><path class="cls-2" d="M338.5,435.51H348l-7.38,41.73h21.5l-1.56,9.08H329.49Z"/><path class="cls-2" d="M377.53,435.51H387l-9,50.81h-9.51Z"/><path class="cls-2" d="M392.86,435.51h10.22l5,30.65.71,6.46h.57l3.12-6.46,16.25-30.65h10.64l-27.46,50.81H401.87Z"/><path class="cls-2" d="M446.15,435.51h32.21l-1.63,9.08H454.09L452,456.37H472.4l-1.63,9.08H450.33l-2.06,11.78h22.64l-1.56,9.08H437.13Z"/><path class="cls-1" d="M378.33,56.43l-1-14.37c18.75-1,36,3.62,51.31,14.58a78.48,78.48,0,0,1,32.93,58.86l-14.3.95c-1.55-17.53-8.69-32.46-22.1-44.15S396,55.57,378.33,56.43Z"/><path class="cls-1" d="M396.51,105.15a21.11,21.11,0,1,1-29.76,2A21.16,21.16,0,0,1,396.51,105.15Z"/><path class="cls-1" d="M433,117.55l-14.39,1a36.17,36.17,0,0,0-38.36-33.41l-1-14.35C404.87,68.32,431.08,88.35,433,117.55Z"/><path class="cls-2" d="M254,293.41c-15.11-4.49-29.9-8.87-44.67-13.28q-70.45-21-140.92-42c-2.75-.81-3.74-1.87-3.7-4.85.18-13.82.07-27.64.08-41.46,0-6.85,3.87-10.72,10.74-10.73q26.44,0,52.88,0h3.74v-6.68h-3.65c-20.24,0-40.48,0-60.72.06a9.53,9.53,0,0,0-4.8,1.47c-5.69,3.62-11.23,7.46-16.85,11.19-3.82,2.53-6.16,2.07-8.78-1.72-1.79-2.59-3.58-5.2-5.26-7.86-1.89-3-1.45-5.64,1.48-7.65,7.81-5.34,15.65-10.64,23.62-15.74,1.42-.91,3.52-1,5.31-1,22-.07,44,0,65.94-.05h3.45c2.28-9.07,5-11.17,14.21-11.18q69.7,0,139.39,0c7.71,0,12,4.16,12,11.89,0,17.84-.14,35.68-.15,53.52q0,19.4.21,38.79c0,1.74-.38,2.68-2.18,3.35-20.23,7.57-33.69,21.73-40.63,42.14C254.51,292.11,254.29,292.59,254,293.41ZM131.21,200h0q21.21,0,42.43,0c3.93,0,3.82,0,4-4.78.09-2.88-.18-4.63-3.91-4.61q-42.43.21-84.86,0c-3.28,0-4.1,1.15-4,4.2.2,5.14,0,5.18,3.93,5.18Q110,200,131.21,200Zm0,7.56c-14.25,0-28.5.05-42.75,0-2.68,0-3.89.82-3.56,3.55a9.62,9.62,0,0,1,0,2.28c-.34,2.77.93,3.51,3.58,3.5,28.39-.07,56.78-.11,85.17,0,3.7,0,4-1.62,3.95-4.54-.15-4.75,0-4.78-4-4.78Zm0,16.86v0c-14.25,0-28.5,0-42.75,0-2.63,0-3.93.75-3.57,3.54a9.14,9.14,0,0,1,0,2.28c-.34,2.74.88,3.57,3.56,3.56,28.39-.07,56.78,0,85.18,0,3.93,0,3.81,0,4-4.82.09-2.94-.28-4.59-4-4.53C159.5,224.57,145.36,224.45,131.22,224.45Z"/><path class="cls-2" d="M64.89,244.2,252.07,300c0,6.67-.58,13.21.16,19.6s2.8,12.41,4.31,18.72H141.68c0-5.71.65-11.3-.11-16.69-3.66-26.08-29.16-44.22-55.14-39.79a63.79,63.79,0,0,1-13,.45A8.57,8.57,0,0,1,65,274.24C64.66,264.38,64.89,254.51,64.89,244.2Z"/><path class="cls-2" d="M258.81,312.86c-1-31.77,24.53-58.9,56.49-60,32.17-1.12,59.66,24.25,60.76,56.07a58.74,58.74,0,0,1-57.3,61.18C286.62,371,259.84,345.4,258.81,312.86Zm87.9-1.16a29.29,29.29,0,1,0-29.52,29.05A29.3,29.3,0,0,0,346.71,311.7Z"/><path class="cls-2" d="M305,246.64c-.07-1.23-.16-2.18-.16-3.14q0-38.34,0-76.68c0-8,3.55-11.45,11.57-11.46h90.08c9.53,0,15.29,7.3,12.94,16.51q-11,43.28-22.06,86.55c-2,7.95-6.52,11.93-14.72,13-.86.12-1.74.07-2.6.18-6.49.86-11.11-1.11-16-6.22-15.54-16.26-35.1-22.18-57.37-19Zm63.83-31.33c0,11.31,0,22.61,0,33.92,0,3.41,1.07,6.19,4,8.07a11.75,11.75,0,0,0,17.7-6.62q9.36-35.26,18.62-70.55c1.2-4.58-1.25-7.69-6-7.7-8.15,0-16.31,0-24.46,0-6.92,0-9.76,2.79-9.77,9.62Q368.85,198.68,368.86,215.32Zm-31.92-42.89h0c-6.09,0-12.19,0-18.28,0-3.8,0-6.45,2.32-6.48,5.88-.11,10.44-.14,20.88,0,31.32.06,4.31,2.52,6.4,7,6.42q17.79,0,35.58,0c4.37,0,6.89-2.48,6.92-6.89q.09-14.85,0-29.71c0-4.67-2.42-7-7.07-7C348.7,172.4,342.82,172.43,336.94,172.43Z"/><path class="cls-2" d="M466.19,330.52c4.12,2.35,8,4.56,11.84,6.74,2,1.1,3.46,2.55,2.7,5s-2.65,3.18-5.11,3.17c-24,0-48.08,0-72.13-.06-11.82,0-20.11-8.54-20.13-20.27q0-15.51,0-31c0-5.69,3-7.48,8-4.8,2.68,1.44,5.34,2.92,8.35,4.58.63-1,1.29-1.91,1.86-2.89,3.33-5.74,6.7-11.45,9.91-17.25a7.18,7.18,0,0,1,6.81-4.14q17.63.06,35.26,0a6.78,6.78,0,0,1,6.32,3.8q8.61,15,17.34,29.92a7.44,7.44,0,0,1,0,8.27C473.51,317.7,470,323.95,466.19,330.52ZM455,324.38c3.17-5.48,6.22-10.59,9-15.83.42-.78,0-2.32-.48-3.22q-6-10.64-12.24-21.14a4.18,4.18,0,0,0-2.92-1.84c-8.36-.15-16.73-.12-25.09,0a3.55,3.55,0,0,0-2.63,1.26c-3.25,5.37-6.33,10.84-9.6,16.54Z"/><path class="cls-2" d="M135.38,329.19a41,41,0,0,1-81.92.18C53.34,306.79,71.61,288.2,94,288.08A41,41,0,0,1,135.38,329.19ZM120.19,329a25.76,25.76,0,1,0-25.54,25.86A25.77,25.77,0,0,0,120.19,329Z"/><path class="cls-1" d="M130.73,419.61l2.56,2.56a16.41,16.41,0,0,0,0,23.09l-2.56,2.56A19.94,19.94,0,0,1,130.73,419.61Z"/><path class="cls-1" d="M156.47,422.17l2.57-2.57a20,20,0,0,1,0,28.23l-2.55-2.57a16.41,16.41,0,0,0,0-23.09Z"/><path class="cls-1" d="M150.21,433.72a5.33,5.33,0,1,1-5.33-5.33A5.34,5.34,0,0,1,150.21,433.72Z"/><path class="cls-1" d="M135.87,424.7l2.58,2.57a9.13,9.13,0,0,0,0,12.86l-2.57,2.58A12.71,12.71,0,0,1,135.87,424.7Z"/><path class="cls-1" d="M153.9,442.72l-2.57-2.58a9.14,9.14,0,0,0,0-12.85l2.57-2.57A12.71,12.71,0,0,1,153.9,442.72Z"/></svg>