<svg id="Calque_1" data-name="Calque 1" xmlns="http://www.w3.org/2000/svg" viewBox="0 0 200 40"><defs><style>.cls-1{fill:red;}.cls-2{fill:#fff;}</style></defs><title>moisson live logo</title><rect class="cls-1" x="143" y="6" width="56" height="25" rx="3" ry="3"/><g id="_Groupe_" data-name="&lt;Groupe&gt;"><path id="_Tracé_" data-name="&lt;Tracé&gt;" class="cls-2" d="M67.28,33.31l-.57.67a1.59,1.59,0,0,0-1.1-.57,1.31,1.31,0,1,0,0,2.61,1.51,1.51,0,0,0,1.1-.49l.57.6a2.5,2.5,0,0,1-1.73.74,2.16,2.16,0,1,1,0-4.31A2.67,2.67,0,0,1,67.28,33.31Z"/><path id="_Tracé_transparent_" data-name="&lt;Tracé transparent&gt;" class="cls-2" d="M71,35.25a1.75,1.75,0,1,1-1.73-1.66A1.61,1.61,0,0,1,71,35.25Zm-2.58,0a.82.82,0,1,0,.81-.88A.82.82,0,0,0,68.41,35.25Z"/><path id="_Tracé_2" data-name="&lt;Tracé&gt;" class="cls-2" d="M77.1,34.83v2h-.92V35.11a.6.6,0,0,0-.64-.67.72.72,0,0,0-.71.81v1.62h-1V35.11a.6.6,0,0,0-.64-.67.74.74,0,0,0-.74.81v1.62h-.92V33.63h.92v.57a1.22,1.22,0,0,1,1.1-.6,1.06,1.06,0,0,1,1.1.74,1.19,1.19,0,0,1,1.17-.74A1.15,1.15,0,0,1,77.1,34.83Z"/><path id="_Tracé_transparent_2" data-name="&lt;Tracé transparent&gt;" class="cls-2" d="M81.41,35.25a1.51,1.51,0,0,1-1.52,1.66,1.28,1.28,0,0,1-1.06-.49v1.66h-.92V33.63h.92v.46a1.26,1.26,0,0,1,1-.49A1.51,1.51,0,0,1,81.41,35.25Zm-1,0a.82.82,0,1,0-1.62,0,.82.82,0,1,0,1.62,0Z"/><path id="_Tracé_transparent_3" data-name="&lt;Tracé transparent&gt;" class="cls-2" d="M83.92,36.49a1.21,1.21,0,0,1-1,.42,1,1,0,0,1-1.13-1c0-.6.46-1,1.24-1h.88v-.07c0-.35-.25-.53-.67-.53a2.09,2.09,0,0,0-1,.28L82,33.95a3.1,3.1,0,0,1,1.48-.39c.88,0,1.38.42,1.38,1.17v2.12h-.92Zm0-.71V35.5h-.74c-.35,0-.53.11-.53.35s.18.42.49.42A.82.82,0,0,0,83.92,35.78Z"/><path id="_Tracé_3" data-name="&lt;Tracé&gt;" class="cls-2" d="M86.57,34.19a1.28,1.28,0,0,1,1.1-.64v.88c-.67-.07-1.1.28-1.1.85v1.55h-.92V33.59h.92Z"/><path id="_Tracé_transparent_4" data-name="&lt;Tracé transparent&gt;" class="cls-2" d="M90,36.49a1.21,1.21,0,0,1-1,.42,1,1,0,0,1-1.13-1c0-.6.46-1,1.24-1h.88v-.07c0-.35-.25-.53-.67-.53a2.09,2.09,0,0,0-1,.28L88,33.95a3.1,3.1,0,0,1,1.48-.39c.88,0,1.38.42,1.38,1.17v2.12H90Zm0-.71V35.5h-.74c-.35,0-.53.11-.53.35s.18.42.49.42A.86.86,0,0,0,90,35.78Z"/><path id="_Tracé_4" data-name="&lt;Tracé&gt;" class="cls-2" d="M93.71,36.7a1.68,1.68,0,0,1-.85.21.94.94,0,0,1-1-1V34.41h-.46v-.64h.46v-.88h.92v.88h.88v.64h-.88v1.34c0,.28.11.39.32.39a1.06,1.06,0,0,0,.42-.11Z"/><path id="_Tracé_transparent_5" data-name="&lt;Tracé transparent&gt;" class="cls-2" d="M97.24,35.54H94.91a.84.84,0,0,0,.85.67,1,1,0,0,0,.81-.35l.49.49a1.83,1.83,0,0,1-1.38.57A1.57,1.57,0,0,1,94,35.25a1.59,1.59,0,0,1,1.7-1.66C96.78,33.59,97.31,34.34,97.24,35.54ZM96.36,35a.67.67,0,0,0-.71-.71.77.77,0,0,0-.78.71Z"/><path id="_Tracé_5" data-name="&lt;Tracé&gt;" class="cls-2" d="M100.95,36.88H100v-.57a1.12,1.12,0,0,1-1.1.6,1.13,1.13,0,0,1-1.17-1.24v-2h.92V35.4a.6.6,0,0,0,.6.67.72.72,0,0,0,.71-.81V33.63h.92v3.25Z"/><path id="_Tracé_6" data-name="&lt;Tracé&gt;" class="cls-2" d="M102.78,34.19a1.28,1.28,0,0,1,1.1-.64v.88c-.67-.07-1.1.28-1.1.85v1.55h-.92V33.59h.92Z"/><path id="_Tracé_transparent_6" data-name="&lt;Tracé transparent&gt;" class="cls-2" d="M105.19,36.07l-.32.81h-1l1.84-4.24h1l1.8,4.24h-1l-.32-.81Zm1-2.44-.67,1.66h1.34Z"/><path id="_Tracé_transparent_7" data-name="&lt;Tracé transparent&gt;" class="cls-2" d="M111.83,36.6a1.55,1.55,0,0,1-1.73,1.52,2.48,2.48,0,0,1-1.41-.42L109,37a1.68,1.68,0,0,0,1,.32c.53,0,.88-.28.88-.74v-.35a1.12,1.12,0,0,1-1,.46,1.58,1.58,0,0,1,0-3.14,1.16,1.16,0,0,1,1,.46v-.46h.92v3Zm-.92-1.45a.78.78,0,1,0-.78.85A.78.78,0,0,0,110.91,35.15Z"/><path id="_Tracé_7" data-name="&lt;Tracé&gt;" class="cls-2" d="M113.63,34.19a1.28,1.28,0,0,1,1.1-.64v.88c-.67-.07-1.1.28-1.1.85v1.55h-.92V33.59h.92Z"/><path id="_Tracé_transparent_8" data-name="&lt;Tracé transparent&gt;" class="cls-2" d="M116.17,32.71a.5.5,0,1,1-.49-.53A.49.49,0,0,1,116.17,32.71Zm-1,4.17V33.63h.92v3.25Z"/><path id="_Tracé_8" data-name="&lt;Tracé&gt;" class="cls-2" d="M119.85,34.26l-.64.46a.94.94,0,0,0-.74-.35.89.89,0,0,0,0,1.77.83.83,0,0,0,.74-.39l.64.42a1.69,1.69,0,1,1-1.45-2.61A1.75,1.75,0,0,1,119.85,34.26Z"/><path id="_Tracé_transparent_9" data-name="&lt;Tracé transparent&gt;" class="cls-2" d="M123.56,35.25a1.75,1.75,0,1,1-1.73-1.66A1.61,1.61,0,0,1,123.56,35.25Zm-2.54,0a.82.82,0,1,0,.81-.88A.8.8,0,0,0,121,35.25Z"/><path id="_Tracé_9" data-name="&lt;Tracé&gt;" class="cls-2" d="M124.19,36.88V32.39h.92v4.49Z"/><path id="_Tracé_transparent_10" data-name="&lt;Tracé transparent&gt;" class="cls-2" d="M129.07,35.54h-2.33a.84.84,0,0,0,.85.67,1,1,0,0,0,.81-.35l.49.49a1.83,1.83,0,0,1-1.38.57,1.57,1.57,0,0,1-1.7-1.66,1.59,1.59,0,0,1,1.7-1.66C128.61,33.59,129.14,34.34,129.07,35.54Zm-.88-.57a.67.67,0,0,0-.71-.71.77.77,0,0,0-.78.71Z"/><path id="_Tracé_10" data-name="&lt;Tracé&gt;" class="cls-2" d="M129.63,36.77c0,.07,0,.14-.11.14s-.11-.07-.11-.14,0-.14.11-.14A.16.16,0,0,1,129.63,36.77Z"/><path id="_Tracé_11" data-name="&lt;Tracé&gt;" class="cls-2" d="M131,35.75l-.11.14a.53.53,0,0,0-.39-.14.45.45,0,0,0-.46.49.48.48,0,0,0,.46.49.59.59,0,0,0,.42-.18l.11.11a.67.67,0,0,1-.53.21.67.67,0,0,1,0-1.34A.59.59,0,0,1,131,35.75Z"/><path id="_Tracé_transparent_11" data-name="&lt;Tracé transparent&gt;" class="cls-2" d="M132.53,36.21a.67.67,0,1,1-.67-.67A.65.65,0,0,1,132.53,36.21Zm-1.13,0a.48.48,0,0,0,.46.49.45.45,0,0,0,.46-.49.46.46,0,1,0-.92,0Z"/><path id="_Tracé_12" data-name="&lt;Tracé&gt;" class="cls-2" d="M135.07,36.07v.81h-.21V36.1a.34.34,0,0,0-.35-.39c-.28,0-.42.21-.42.49v.64h-.21v-.78a.34.34,0,0,0-.35-.39c-.28,0-.42.21-.42.49v.64h-.21V35.47h.18v.39a.5.5,0,0,1,.49-.32.43.43,0,0,1,.46.35.5.5,0,0,1,.53-.35A.48.48,0,0,1,135.07,36.07Z"/></g><g id="_Groupe_2" data-name="&lt;Groupe&gt;"><path id="_Tracé_13" data-name="&lt;Tracé&gt;" class="cls-2" d="M59.41,35.68c-.35.11-.6,0-.71-.28,0-.11,0-.14.11-.18.32-.11.46,0,.6.39l.14,0a.13.13,0,0,0,0-.11c-.07-.32,0-.46.35-.53.11,0,.14,0,.18.11.07.32-.11.53-.46.64.07.28.18.57.25.85,0,0,0,.11,0,.14s0,.11,0,.18-.11-.07-.11-.14a2.28,2.28,0,0,0-.14-.46A5,5,0,0,1,59.41,35.68Z"/><path id="_Tracé_14" data-name="&lt;Tracé&gt;" class="cls-2" d="M59.41,32.78c.11.28.07.35-.18.46l-.25.14C58.8,33,58.95,32.85,59.41,32.78Z"/><path id="_Tracé_15" data-name="&lt;Tracé&gt;" class="cls-2" d="M58.8,33.42c-.14,0-.28,0-.42,0s-.18-.18-.25-.28A.38.38,0,0,1,58.8,33.42Z"/><path id="_Tracé_16" data-name="&lt;Tracé&gt;" class="cls-2" d="M58.52,34.72c.42-.18.64-.11.71.28-.14,0-.32,0-.46,0S58.59,34.83,58.52,34.72Z"/><path id="_Tracé_17" data-name="&lt;Tracé&gt;" class="cls-2" d="M58.84,32.85c-.11-.35-.07-.49.28-.67,0,.14.07.25.11.39s0,.11-.07.11A1.43,1.43,0,0,0,58.84,32.85Z"/><path id="_Tracé_18" data-name="&lt;Tracé&gt;" class="cls-2" d="M58.1,32.43c.35,0,.49.07.57.46C58.13,32.89,58.06,32.85,58.1,32.43Z"/><path id="_Tracé_19" data-name="&lt;Tracé&gt;" class="cls-2" d="M59.83,34.37c.11.28.07.32-.18.46l-.25.14C59.23,34.69,59.26,34.44,59.83,34.37Z"/><path id="_Tracé_20" data-name="&lt;Tracé&gt;" class="cls-2" d="M59.69,33.84c.11.28.07.35-.18.46a1.54,1.54,0,0,0-.25.14C59.09,34.12,59.16,33.95,59.69,33.84Z"/><path id="_Tracé_21" data-name="&lt;Tracé&gt;" class="cls-2" d="M58.24,33.66c.42-.18.64-.11.67.28-.14,0-.28,0-.42,0S58.31,33.81,58.24,33.66Z"/><path id="_Tracé_22" data-name="&lt;Tracé&gt;" class="cls-2" d="M59.09,34.48h-.32c-.25,0-.32,0-.32-.28C58.77,34,59,34.09,59.09,34.48Z"/><path id="_Tracé_23" data-name="&lt;Tracé&gt;" class="cls-2" d="M59.55,33.31c.07.28.07.32-.18.42l-.25.14C58.95,33.56,59.09,33.38,59.55,33.31Z"/><path id="_Tracé_24" data-name="&lt;Tracé&gt;" class="cls-2" d="M58.42,31.76c.42.25.46.32.18.64-.11,0-.21-.11-.32-.14A2.6,2.6,0,0,0,58.42,31.76Z"/></g><g id="_Groupe_3" data-name="&lt;Groupe&gt;"><path id="_Tracé_25" data-name="&lt;Tracé&gt;" class="cls-2" d="M59,37.27a3.7,3.7,0,0,1-.28-.39c-.11-.14-.21-.32-.32-.46a.52.52,0,0,1-.78,0,.13.13,0,0,1,0-.21c.25-.21.42-.18.71.18,0,0,.07,0,.11-.07s0-.07-.07-.11c-.18-.28-.14-.42.11-.64s.14,0,.18,0c.18.25.11.53-.21.74.18.25.35.46.53.71a.49.49,0,0,1,.11.14"/><path id="_Tracé_26" data-name="&lt;Tracé&gt;" class="cls-2" d="M57.32,33.7c.21.25.21.32,0,.49s-.11.14-.18.21C56.86,34.16,56.9,33.95,57.32,33.7Z"/><path id="_Tracé_27" data-name="&lt;Tracé&gt;" class="cls-2" d="M57,34.55l-.39.18c-.18.07-.25-.11-.35-.18C56.51,34.19,56.83,34.19,57,34.55Z"/><path id="_Tracé_28" data-name="&lt;Tracé&gt;" class="cls-2" d="M57.18,35.85q.48-.48.74,0a2.16,2.16,0,0,1-.42.18C57.36,36.1,57.29,35.93,57.18,35.85Z"/><path id="_Tracé_29" data-name="&lt;Tracé&gt;" class="cls-2" d="M56.83,34c-.25-.28-.25-.46,0-.74.07.11.18.21.25.32s0,.11,0,.14A1.77,1.77,0,0,0,56.83,34Z"/><path id="_Tracé_30" data-name="&lt;Tracé&gt;" class="cls-2" d="M56,33.88c.32-.18.49-.11.67.21C56.16,34.26,56.08,34.26,56,33.88Z"/><path id="_Tracé_31" data-name="&lt;Tracé&gt;" class="cls-2" d="M58.27,35c.18.25.18.28,0,.49s-.11.14-.18.21C57.85,35.57,57.82,35.32,58.27,35Z"/><path id="_Tracé_32" data-name="&lt;Tracé&gt;" class="cls-2" d="M58,34.62c.21.21.18.28,0,.46a.94.94,0,0,0-.18.21C57.53,35.08,57.5,34.9,58,34.62Z"/><path id="_Tracé_33" data-name="&lt;Tracé&gt;" class="cls-2" d="M56.58,35q.48-.48.74,0l-.39.18C56.69,35.22,56.65,35,56.58,35Z"/><path id="_Tracé_34" data-name="&lt;Tracé&gt;" class="cls-2" d="M57.6,35.43l-.32.11c-.21.11-.28.07-.42-.14C57.18,35.08,57.43,35.08,57.6,35.43Z"/><path id="_Tracé_35" data-name="&lt;Tracé&gt;" class="cls-2" d="M57.67,34.16c.18.25.18.25,0,.46s-.11.14-.18.21C57.18,34.62,57.25,34.37,57.67,34.16Z"/><path id="_Tracé_36" data-name="&lt;Tracé&gt;" class="cls-2" d="M56,33.1c.49.07.53.14.42.53a1.33,1.33,0,0,1-.35,0A2.08,2.08,0,0,1,56,33.1Z"/></g><path id="_Tracé_transparent_12" data-name="&lt;Tracé transparent&gt;" class="cls-2" d="M60.11,36.77a3.11,3.11,0,0,1-4.17-4.59A3.08,3.08,0,0,1,60,31.9c1.34,1,1.55,2.68.57,4.35L63,38.47c-.21.21-.35.39-.53.57C61.74,38.29,60.92,37.51,60.11,36.77Zm-1.84.28a2.72,2.72,0,0,0-.21-5.44,2.77,2.77,0,0,0-2.61,2.83A2.68,2.68,0,0,0,58.27,37.06Z"/><path class="cls-2" d="M40.46,9.7h4.35l4.75,12.58h.2L54.51,9.7h4.38V27.6H55.54V18.77l.2-3h-.2L51,27.6H48.36L43.79,15.8h-.2l.2,3V27.6H40.46Z"/><path class="cls-2" d="M65.09,27.11a6.3,6.3,0,0,1-2.41-2.43,7.35,7.35,0,0,1,0-6.91,6.28,6.28,0,0,1,2.41-2.44,7.4,7.4,0,0,1,7,0,6.28,6.28,0,0,1,2.41,2.44,7.35,7.35,0,0,1,0,6.91,6.3,6.3,0,0,1-2.41,2.43,7.4,7.4,0,0,1-7,0Zm5.28-2.59a3.31,3.31,0,0,0,1.27-1.3,4,4,0,0,0,.48-2,4,4,0,0,0-.48-2,3.3,3.3,0,0,0-1.27-1.3,3.63,3.63,0,0,0-3.5,0,3.38,3.38,0,0,0-1.29,1.3,3.9,3.9,0,0,0-.49,2,4,4,0,0,0,.49,2,3.37,3.37,0,0,0,1.29,1.31,3.63,3.63,0,0,0,3.5,0Z"/><path class="cls-2" d="M77.83,14.85h3.28V27.6H77.83Z"/><path class="cls-2" d="M85.62,27a5.06,5.06,0,0,1-2-2.48l2.92-1.27a3,3,0,0,0,1.14,1.36,3.15,3.15,0,0,0,1.71.46,3.47,3.47,0,0,0,1.5-.29,1,1,0,0,0,.6-.94,1,1,0,0,0-.55-.94,6.28,6.28,0,0,0-1.65-.56l-1.5-.33a5.48,5.48,0,0,1-2.57-1.36,3.28,3.28,0,0,1-1-2.46,3.19,3.19,0,0,1,.66-2,4.25,4.25,0,0,1,1.8-1.35,6.46,6.46,0,0,1,2.51-.48q4,0,5.28,2.77l-2.8,1.23a2.89,2.89,0,0,0-3.75-1,.91.91,0,0,0-.5.79q0,.9,1.7,1.35L91,20a6,6,0,0,1,2.86,1.45,3.28,3.28,0,0,1,1,2.4A3.48,3.48,0,0,1,94.07,26a4.68,4.68,0,0,1-2,1.46,6.93,6.93,0,0,1-2.74.53A6.72,6.72,0,0,1,85.62,27Z"/><path class="cls-2" d="M98.25,27a5.06,5.06,0,0,1-2-2.48l2.92-1.27a3,3,0,0,0,1.14,1.36,3.15,3.15,0,0,0,1.71.46,3.47,3.47,0,0,0,1.5-.29,1,1,0,0,0,.6-.94,1,1,0,0,0-.55-.94,6.28,6.28,0,0,0-1.65-.56l-1.5-.33a5.48,5.48,0,0,1-2.57-1.36,3.28,3.28,0,0,1-1-2.46,3.19,3.19,0,0,1,.66-2,4.25,4.25,0,0,1,1.8-1.35,6.46,6.46,0,0,1,2.51-.48q4,0,5.28,2.77l-2.8,1.23a2.89,2.89,0,0,0-3.75-1,.91.91,0,0,0-.5.79q0,.9,1.7,1.35l1.88.45a6,6,0,0,1,2.86,1.45,3.28,3.28,0,0,1,1,2.4A3.48,3.48,0,0,1,106.7,26a4.68,4.68,0,0,1-2,1.46A6.93,6.93,0,0,1,102,28,6.72,6.72,0,0,1,98.25,27Z"/><path class="cls-2" d="M112.48,27.11a6.31,6.31,0,0,1-2.41-2.43,7.36,7.36,0,0,1,0-6.91,6.28,6.28,0,0,1,2.41-2.44,7.4,7.4,0,0,1,7,0,6.28,6.28,0,0,1,2.41,2.44,7.36,7.36,0,0,1,0,6.91,6.31,6.31,0,0,1-2.41,2.43,7.4,7.4,0,0,1-7,0Zm5.28-2.59a3.3,3.3,0,0,0,1.27-1.3,4,4,0,0,0,.48-2,4,4,0,0,0-.48-2,3.3,3.3,0,0,0-1.27-1.3,3.63,3.63,0,0,0-3.5,0,3.38,3.38,0,0,0-1.29,1.3,3.91,3.91,0,0,0-.49,2,4,4,0,0,0,.49,2,3.37,3.37,0,0,0,1.29,1.31,3.63,3.63,0,0,0,3.5,0Z"/><path class="cls-2" d="M125,14.85h3.08v1.6h.2A4,4,0,0,1,129.93,15a4.92,4.92,0,0,1,2.28-.54,4.36,4.36,0,0,1,3.5,1.4,5.69,5.69,0,0,1,1.2,3.83V27.6h-3.27V20.07a2.69,2.69,0,0,0-.62-1.9,2.27,2.27,0,0,0-1.75-.68,2.59,2.59,0,0,0-2.14,1,4,4,0,0,0-.81,2.57v6.5H125Z"/><path class="cls-2" d="M147.83,9.7h3.35l-2.6,14.7h7.58l-.55,3.2H144.66Z"/><path class="cls-2" d="M161.58,9.7h3.35l-3.17,17.9h-3.35Z"/><path class="cls-2" d="M167,9.7h3.6l1.78,10.8.25,2.28h.2l1.1-2.28,5.72-10.8h3.75l-9.67,17.9h-3.55Z"/><path class="cls-2" d="M185.76,9.7h11.35l-.58,3.2h-8L187.81,17H195l-.58,3.2h-7.2l-.72,4.15h8l-.55,3.2H182.58Z"/><path class="cls-1" d="M74.57,4.42l1,1a6.15,6.15,0,0,0,0,8.66l-1,1A7.48,7.48,0,0,1,74.57,4.42Z"/><path class="cls-1" d="M84.23,5.38l1-1a7.5,7.5,0,0,1,0,10.59l-1-1a6.16,6.16,0,0,0,0-8.66Z"/><circle class="cls-1" cx="79.88" cy="9.71" r="2"/><path class="cls-1" d="M76.5,6.33l1,1a3.43,3.43,0,0,0,0,4.82l-1,1A4.77,4.77,0,0,1,76.5,6.33Z"/><path class="cls-1" d="M83.26,13.09l-1-1a3.43,3.43,0,0,0,0-4.82l1-1A4.77,4.77,0,0,1,83.26,13.09Z"/><path class="cls-2" d="M18.77,21.93l-3.47-1-11-3.27c-.21-.06-.29-.15-.29-.38,0-1.07,0-2.15,0-3.22a.76.76,0,0,1,.84-.83h4.4v-.52h-5a.74.74,0,0,0-.37.11c-.44.28-.87.58-1.31.87s-.48.16-.68-.13-.28-.4-.41-.61a.39.39,0,0,1,.12-.59c.61-.42,1.22-.83,1.84-1.22A.81.81,0,0,1,3.88,11h5.4c.18-.71.39-.87,1.11-.87H21.22a.83.83,0,0,1,.93.92c0,1.39,0,2.78,0,4.16q0,1.51,0,3a.23.23,0,0,1-.17.26,5.08,5.08,0,0,0-3.16,3.28ZM9.22,14.67h3.3c.31,0,.3,0,.31-.37s0-.36-.3-.36q-3.3,0-6.6,0c-.26,0-.32.09-.31.33,0,.4,0,.4.31.4Zm0,.59H5.9c-.21,0-.3.06-.28.28a.75.75,0,0,1,0,.18c0,.22.07.27.28.27,2.21,0,4.42,0,6.62,0,.29,0,.31-.13.31-.35s0-.37-.31-.37Zm0,1.31H5.9c-.2,0-.31.06-.28.27a.71.71,0,0,1,0,.18c0,.21.07.28.28.28h6.62c.31,0,.3,0,.31-.37s0-.36-.31-.35C11.42,16.58,10.32,16.57,9.22,16.57Z"/><path class="cls-2" d="M4.06,18.1l14.56,4.34a13.38,13.38,0,0,0,0,1.52A12.72,12.72,0,0,0,19,25.42H10a9.52,9.52,0,0,0,0-1.3A3.72,3.72,0,0,0,5.74,21a5,5,0,0,1-1,0,.67.67,0,0,1-.66-.63C4,19.67,4.06,18.9,4.06,18.1Z"/><path class="cls-2" d="M19.15,23.44a4.56,4.56,0,1,1,4.66,4.45A4.57,4.57,0,0,1,19.15,23.44ZM26,23.35a2.28,2.28,0,1,0-2.3,2.26A2.28,2.28,0,0,0,26,23.35Z"/><path class="cls-2" d="M22.74,18.29c0-.1,0-.17,0-.24q0-3,0-6c0-.62.28-.89.9-.89h7a1,1,0,0,1,1,1.28l-1.72,6.73a1.22,1.22,0,0,1-1.14,1h-.2a1.33,1.33,0,0,1-1.24-.48,4.91,4.91,0,0,0-4.46-1.48Zm5-2.44c0,.88,0,1.76,0,2.64a.68.68,0,0,0,.31.63.91.91,0,0,0,1.38-.51q.73-2.74,1.45-5.49a.44.44,0,0,0-.47-.6h-1.9c-.54,0-.76.22-.76.75Q27.7,14.56,27.71,15.86Zm-2.48-3.34H23.8a.46.46,0,0,0-.5.46c0,.81,0,1.62,0,2.44,0,.34.2.5.54.5h2.77a.49.49,0,0,0,.54-.54q0-1.16,0-2.31a.49.49,0,0,0-.55-.55Z"/><path class="cls-2" d="M35.28,24.82l.92.52c.15.09.27.2.21.39A.36.36,0,0,1,36,26H30.4a1.52,1.52,0,0,1-1.57-1.58q0-1.21,0-2.41c0-.44.23-.58.62-.37l.65.36.14-.23c.26-.45.52-.89.77-1.34a.56.56,0,0,1,.53-.32h2.74a.53.53,0,0,1,.49.3l1.35,2.33a.58.58,0,0,1,0,.64C35.84,23.82,35.57,24.3,35.28,24.82Zm-.87-.48c.25-.43.48-.82.7-1.23a.32.32,0,0,0,0-.25q-.47-.83-1-1.64a.33.33,0,0,0-.23-.14c-.65,0-1.3,0-2,0a.28.28,0,0,0-.2.1c-.25.42-.49.84-.75,1.29Z"/><path class="cls-2" d="M9.55,24.71a3.19,3.19,0,1,1-3.22-3.2A3.19,3.19,0,0,1,9.55,24.71Zm-1.18,0a2,2,0,1,0-2,2A2,2,0,0,0,8.36,24.69Z"/></svg>